<svg xmlns="http://www.w3.org/2000/svg" width="64" height="64" fill="none" viewBox="0 0 64 64"><rect width="62" height="62" x="1" y="1" fill="#030303" stroke="url(#paint0_radial_146_2010)" stroke-width="2" rx="31"/><path fill="url(#paint1_radial_146_2010)" fill-rule="evenodd" d="M21.2718 19.31C21.4757 19.1142 21.7449 19 22.0223 19H47.916C48.3892 19 48.6258 19.5711 48.2913 19.9055L43.1762 25.0207C42.9804 25.2164 42.7112 25.3307 42.4256 25.3307H16.5319C16.0588 25.3307 15.8222 24.7596 16.1566 24.4251L21.2718 19.31ZM21.2718 38.408C21.4676 38.2122 21.7368 38.098 22.0223 38.098H47.916C48.3892 38.098 48.6258 38.6691 48.2913 39.0036L43.1762 44.1187C42.9804 44.3145 42.7112 44.4287 42.4256 44.4287H16.5319C16.0588 44.4287 15.8222 43.8576 16.1566 43.5231L21.2718 38.408ZM42.4256 28.4879C42.7112 28.4879 42.9804 28.6021 43.1762 28.7979L48.2913 33.913C48.6258 34.2475 48.3892 34.8185 47.916 34.8185H22.0223C21.7368 34.8185 21.4676 34.7043 21.2718 34.5085L16.1566 29.3934C15.8222 29.0589 16.0588 28.4879 16.5319 28.4879H42.4256Z" clip-rule="evenodd"/><defs><radialGradient id="paint0_radial_146_2010" cx="0" cy="0" r="1" gradientTransform="translate(6.56036 1.25367) rotate(54.7294) scale(75.7409 55.1551)" gradientUnits="userSpaceOnUse"><stop stop-color="#AAA"/><stop offset=".377" stop-color="#282C30"/><stop offset="1" stop-color="#787D83"/></radialGradient><radialGradient id="paint1_radial_146_2010" cx="0" cy="0" r="1" gradientTransform="translate(43.5848 19) rotate(128.797) scale(34.0578 35.7081)" gradientUnits="userSpaceOnUse"><stop stop-color="#9FA5B6"/><stop offset="1" stop-color="#36393D"/></radialGradient></defs></svg>