<svg xmlns="http://www.w3.org/2000/svg" width="64" height="64" fill="none" viewBox="0 0 64 64"><rect width="62" height="62" x="1" y="1" fill="#030303" stroke="url(#paint0_radial_146_2011)" stroke-width="2" rx="31"/><path fill="url(#paint1_radial_146_2011)" fill-rule="evenodd" d="M15.2614 22.2275L32.2075 12.4549L49.1534 22.2275V41.7725L32.2075 51.5451L15.2614 41.7725V22.2275ZM32.2075 11L50.4149 21.5V42.5L32.2075 53L14 42.5V21.5L32.2075 11ZM29.8285 30.5576L32.2085 29.1851L34.5885 30.5576V33.3026L32.2085 34.6752L29.8285 33.3026V30.5576ZM32.2085 27.7301L35.85 29.8301V34.0301L32.2085 36.1301L28.567 34.0301V29.8301L32.2085 27.7301ZM36.2721 36.2551L33.8921 37.6276V40.3727L36.2721 41.7452L38.6522 40.3727V37.6276L36.2721 36.2551ZM39.9136 36.9002L36.2721 34.8002L32.6307 36.9002V41.1002L36.2721 43.2002L39.9136 41.1002V36.9002ZM37.9572 30.5576L40.3372 29.1851L42.7172 30.5576V33.3026L40.3372 34.6752L37.9572 33.3026V30.5576ZM40.3372 27.7301L43.9787 29.8301V34.0301L40.3372 36.1301L36.6957 34.0301V29.8301L40.3372 27.7301ZM24.0781 29.1851L21.698 30.5576V33.3026L24.0781 34.6752L26.4581 33.3026V30.5576L24.0781 29.1851ZM27.7195 29.8301L24.0781 27.7301L20.4366 29.8301V34.0301L24.0781 36.1301L27.7195 34.0301V29.8301ZM25.763 37.6276L28.143 36.2551L30.523 37.6276V40.3727L28.143 41.7452L25.763 40.3727V37.6276ZM28.143 34.8002L31.7845 36.9002V41.1002L28.143 43.2002L24.5015 41.1002V36.9002L28.143 34.8002ZM36.2721 22.2551L33.8921 23.6276V26.3727L36.2721 27.7452L38.6522 26.3727V23.6276L36.2721 22.2551ZM39.9136 22.9002L36.2721 20.8002L32.6307 22.9002V27.1002L36.2721 29.2002L39.9136 27.1002V22.9002ZM25.763 23.6276L28.143 22.2551L30.523 23.6276V26.3727L28.143 27.7452L25.763 26.3727V23.6276ZM28.143 20.8002L31.7845 22.9002V27.1002L28.143 29.2002L24.5015 27.1002V22.9002L28.143 20.8002Z" clip-rule="evenodd"/><defs><radialGradient id="paint0_radial_146_2011" cx="0" cy="0" r="1" gradientTransform="translate(6.56036 1.25367) rotate(54.7294) scale(75.7409 55.1551)" gradientUnits="userSpaceOnUse"><stop stop-color="#AAA"/><stop offset=".377" stop-color="#282C30"/><stop offset="1" stop-color="#787D83"/></radialGradient><radialGradient id="paint1_radial_146_2011" cx="0" cy="0" r="1" gradientTransform="translate(33.5 22.5) rotate(111.631) scale(31.197 27.0484)" gradientUnits="userSpaceOnUse"><stop stop-color="#9FA5B6"/><stop offset="1" stop-color="#36393D"/></radialGradient></defs></svg>