<svg xmlns="http://www.w3.org/2000/svg" width="24" height="25" fill="none" viewBox="0 0 24 25"><g clip-path="url(#clip0_1133_210)"><path fill="#fff" d="M4 18.4417H20C20.55 18.4417 21 17.9917 21 17.4417C21 16.8917 20.55 16.4417 20 16.4417H4C3.45 16.4417 3 16.8917 3 17.4417C3 17.9917 3.45 18.4417 4 18.4417ZM4 13.4417H20C20.55 13.4417 21 12.9917 21 12.4417C21 11.8917 20.55 11.4417 20 11.4417H4C3.45 11.4417 3 11.8917 3 12.4417C3 12.9917 3.45 13.4417 4 13.4417ZM3 7.44165C3 7.99165 3.45 8.44165 4 8.44165H20C20.55 8.44165 21 7.99165 21 7.44165C21 6.89165 20.55 6.44165 20 6.44165H4C3.45 6.44165 3 6.89165 3 7.44165Z"/></g><defs><clipPath id="clip0_1133_210"><rect width="24" height="24" fill="#fff" transform="translate(0 0.44165)"/></clipPath></defs></svg>