<?xml version="1.0" encoding="UTF-8"?>
<svg width="80px" height="80px" viewBox="0 0 80 80" version="1.1" xmlns="http://www.w3.org/2000/svg" xmlns:xlink="http://www.w3.org/1999/xlink">
    <!-- Generator: Sketch 63.1 (92452) - https://sketch.com -->
    <title>ic_kwbtc</title>
    <desc>Created with Sketch.</desc>
    <defs>
        <radialGradient cx="100%" cy="100%" fx="100%" fy="100%" r="141.421356%" id="radialGradient-1">
            <stop stop-color="#00AE87" offset="0%"></stop>
            <stop stop-color="#0767B2" offset="100%"></stop>
        </radialGradient>
    </defs>
    <g id="ic_kwbtc" stroke="none" stroke-width="1" fill="none" fill-rule="evenodd">
        <rect fill="#FFFFFF" x="0" y="0" width="80" height="80"></rect>
        <g>
            <rect id="Rectangle" fill="#FFFFFF" x="0" y="0" width="80" height="80"></rect>
            <g id="Group-19" transform="translate(7.619048, 7.619048)" fill-rule="nonzero">
                <g id="Group-3" transform="translate(4.459652, 4.459652)" fill="#827F8B">
                    <g id="Combined-Shape">
                        <path d="M44.9966474,46.5476 L46.8150036,48.3230874 C36.211203,58.0882676 19.8754857,58.0882676 9.2716853,48.3230874 L9.2716853,48.3230874 L11.0490874,46.5476 C20.6585255,55.32386 35.3872093,55.32386 44.9966474,46.5476 L44.9966474,46.5476 Z M48.3412952,9.26357745 C57.9711248,19.7652922 58.067423,35.889269 48.6301901,46.5050156 L48.3412952,46.8250074 L46.5734722,45.047503 C55.2258013,35.5284524 55.3123248,20.9913562 46.8330419,11.3719446 L46.5734722,11.0819627 L48.3412952,9.30282316 L48.3412952,9.26357745 Z M7.33080185,9.17159617 L9.10127215,10.9403064 C0.439311497,20.4106516 0.352691891,34.864647 8.84141333,44.4330865 L9.10127215,44.7215335 L7.33080185,46.5504484 C-2.41985107,35.9935097 -2.41985107,19.7285347 7.33080185,9.17159617 Z M28.0204103,0.0273546552 C34.6875354,0.0273546552 41.3546606,2.42586143 46.6325596,7.22287501 L46.7920693,7.36897322 L45.0146672,9.14875952 C35.5013234,0.440844166 20.9690015,0.353765011 11.3568676,8.88752208 L11.0671071,9.14875952 L9.24711291,7.36897322 C14.5481941,2.47456084 21.2859404,0.0273546552 28.0204103,0.0273546552 Z" id="path-1"></path>
                    </g>
                </g>
                <g id="Group-15" transform="translate(20.940975, 16.093527)" fill="#EF9141">
                    <g id="Clip-14">
                        <path d="M11.9798199,0.111722162 L11.9798199,5.22310366 C11.1602263,5.22310366 10.3226735,5.22310366 9.48838604,5.253102 L9.48838604,5.253102 L9.48838604,0.111722162 L6.389604,0.111722162 L6.389604,5.35476299 L4.40755901,5.35476299 L0.0728559966,5.35476299 L0.0728559966,8.76623933 C0.0728559966,8.76623933 2.37653432,8.72457499 2.34061589,8.76623933 L2.34061589,8.76623933 C3.20265851,8.66957806 3.98796629,9.2878769 4.11041552,10.1678278 L4.11041552,10.1678278 L4.11041552,24.5253602 C4.07449709,25.1453255 3.55041434,25.620299 2.94143347,25.5819678 L2.94143347,25.5819678 C2.93816815,25.5819678 2.93490284,25.5819678 2.93163752,25.5786347 L2.93163752,25.5786347 C2.97245394,25.6169659 0.66387765,25.5786347 0.66387765,25.5786347 L0.66387765,25.5786347 L0.045100836,29.3900888 L4.10551756,29.3900888 L6.33735899,29.3900888 L6.33735899,34.7181248 L9.45410025,34.7181248 L9.45410025,29.4700842 L11.9439014,29.4700842 L11.9439014,34.6947928 L15.0671733,34.6947928 L15.0671733,29.42842 C20.3324905,29.1034381 24.004335,27.7735122 24.4647442,22.7304602 L24.4647442,22.7304602 C24.8369899,18.6723533 22.9708634,16.8607877 19.9912653,16.1291619 L19.9912653,16.1291619 C21.8018813,15.1875478 22.9414756,13.5259738 22.6704547,10.7594615 L22.6704547,10.7594615 C22.3145354,6.97967232 19.1259573,5.71140975 15.0965611,5.32476467 L15.0965611,5.32476467 L15.0965611,0.111722162 L11.9798199,0.111722162 Z M9.56185558,15.3725374 L9.56185558,8.98956021 C11.318594,8.98956021 16.8565648,8.42292514 16.8565648,12.1910482 L16.8565648,12.1910482 C16.8565648,15.1042191 13.2777818,15.3892032 10.9626749,15.3892032 L10.9626749,15.3892032 C10.3977757,15.3892032 9.90634611,15.3725374 9.56185558,15.3725374 L9.56185558,15.3725374 Z M9.55532495,25.6102996 L9.55532495,18.5823583 C9.57328417,18.5823583 9.59124341,18.5823583 9.61083528,18.5823583 L9.61083528,18.5823583 C9.84430516,18.5823583 10.1316527,18.5740255 10.453286,18.5673592 L10.453286,18.5673592 C13.1145161,18.505696 18.3014658,18.4440327 18.3014658,22.1021619 L18.3014658,22.1021619 C18.3014658,25.3269821 13.9063545,25.6269653 11.1324711,25.6269653 L11.1324711,25.6269653 C10.4973678,25.6269653 9.94879518,25.6102996 9.55532495,25.6102996 L9.55532495,25.6102996 Z" id="path-3"></path>
                    </g>
                </g>
                <g id="Group-18" fill="#282037">
                    <g id="Clip-17">
                        <path d="M-1.10969716e-06,32.3768627 C-0.00327883221,50.2582337 14.49081,64.7586322 32.3752139,64.7619042 L32.3752139,64.7619042 C50.25306,64.7422754 64.7405912,50.2533267 64.7619042,32.3768627 L64.7619042,32.3768627 C64.7569853,14.4954914 50.2628966,0.00490705522 32.3866897,-1.12405876e-06 L32.3866897,-1.12405876e-06 C14.5039253,-0.00327139851 0.0032788372,14.49222 -1.10969716e-06,32.3768627 L-1.10969716e-06,32.3768627 Z M2.55420137,32.3801339 C2.54437573,15.9021854 15.8957906,2.53532063 32.3752139,2.5238708 L32.3752139,2.5238708 L32.3752139,2.54349909 C48.8513583,2.55004185 62.2093309,15.8972783 62.2306432,32.3768627 L62.2306432,32.3768627 C62.2240855,48.8417257 48.8759495,62.1905977 32.4096417,62.2020476 L32.4096417,62.2020476 C32.403084,62.2020476 32.3965263,62.2020476 32.3883291,62.2020476 L32.3883291,62.2020476 C15.9203819,62.200412 2.56404874,48.8515398 2.55420137,32.3801339 L2.55420137,32.3801339 Z" id="path-5"></path>
                    </g>
                </g>
            </g>
            <g id="ORC" transform="translate(42.000000, 42.000000)" fill-rule="nonzero">
                <circle id="Oval" fill="url(#radialGradient-1)" cx="15" cy="15" r="15"></circle>
                <path d="M6.32645899,14.3923329 C6.77934496,14.3923329 7.14658887,14.7616047 7.14658887,15.2170996 L7.14652863,15.2203226 L7.14639609,15.2235457 L7.1510228,15.2235457 C7.1510228,15.224612 7.15097461,15.2257267 7.15097461,15.226793 C7.15097461,18.8988148 9.71662156,21.9676135 13.1433157,22.7207941 C13.6690721,22.8360008 14.2148294,22.8972632 14.7749004,22.8972632 L14.7759909,22.8972391 L14.7771174,22.8972148 C14.7889733,22.8976509 14.8008292,22.8972632 14.8127815,22.8972632 C15.2656675,22.8972632 15.6329114,23.2664865 15.6329114,23.7220299 C15.6329114,24.1774764 15.2656675,24.5467481 14.8127815,24.5467481 L14.7949133,24.5464937 L14.7771174,24.5458756 L14.7771174,24.5467481 L14.9120627,24.5467481 C14.8679163,24.5473781 14.8236735,24.5477658 14.7793344,24.5477658 C14.0594013,24.5477658 13.3586498,24.4652261 12.6858995,24.3090163 C8.61518717,23.3660634 5.56929985,19.7268085 5.50729276,15.3615241 L5.50632911,15.2290225 L5.50632911,15.2170996 C5.50632911,14.7616047 5.87352484,14.3923329 6.32645899,14.3923329 Z M14.9999757,9.31461647 C18.1459488,9.31461647 20.6962025,11.8721468 20.6962025,15.0270962 C20.6962025,18.1819482 18.1459488,20.7394785 14.9999757,20.7394785 C11.8540512,20.7394785 9.30379747,18.1819482 9.30379747,15.0270962 C9.30379747,11.8721468 11.8540512,9.31461647 14.9999757,9.31461647 Z M14.9999757,11.7296074 C13.1840801,11.7296074 11.7119659,13.205922 11.7119659,15.0270962 C11.7119659,16.848173 13.1840801,18.3244876 14.9999757,18.3244876 C16.8159199,18.3244876 18.2880341,16.848173 18.2880341,15.0270962 C18.2880341,13.205922 16.8159199,11.7296074 14.9999757,11.7296074 Z M23.2278729,16.5080481 C23.6938887,16.5080481 24.07173,16.8869161 24.07173,17.3543591 C24.07173,17.8217026 23.6938887,18.2006203 23.2278729,18.2006203 C22.7618075,18.2006203 22.3839663,17.8217026 22.3839663,17.3543591 C22.3839663,16.8869161 22.7618075,16.5080481 23.2278729,16.5080481 Z M15.2250073,5.50632911 C20.2917482,5.50632911 24.4088115,9.59508845 24.4923763,14.6708347 L24.4936709,14.8249442 C24.4934299,14.8289673 24.4936709,14.8328935 24.4936709,14.8369167 C24.4936709,15.2924551 24.1264734,15.6617621 23.6735372,15.6617621 C23.2206008,15.6617621 22.8534515,15.2924551 22.8534515,14.8369167 L22.853572,14.8309304 L22.8536924,14.8249442 C22.8516885,10.6315412 19.5050058,7.22471588 15.3511268,7.1569987 L15.2250073,7.15597137 L15.2228385,7.15601985 C15.2109825,7.15558359 15.1991266,7.15597137 15.1871742,7.15597137 C14.7342379,7.15597137 14.3670886,6.78671286 14.3670886,6.33117448 C14.3670886,5.8756361 14.7342379,5.50632911 15.1871742,5.50632911 L15.2050425,5.50660783 L15.2228385,5.50725008 L15.2228385,5.50632911 L15.2250073,5.50632911 Z M6.77215191,11.8534747 C7.238154,11.8534747 7.61603375,12.2323538 7.61603375,12.6997608 C7.61603375,13.1671677 7.238154,13.5460469 6.77215191,13.5460469 C6.30614979,13.5460469 5.92827004,13.1671677 5.92827004,12.6997608 C5.92827004,12.2323538 6.30614979,11.8534747 6.77215191,11.8534747 Z" id="Combined-Shape" fill="#FFFFFF"></path>
            </g>
        </g>
    </g>
</svg>