<svg xmlns="http://www.w3.org/2000/svg" width="32" height="32" fill="none" viewBox="0 0 32 32"><path fill="#fff" d="M29.0031 9.50939C28.0469 9.92189 27.0062 10.2188 25.9344 10.3344C27.0472 9.67325 27.8806 8.62876 28.2781 7.39689C27.2339 8.0181 26.0899 8.45371 24.8969 8.68439C24.3983 8.15135 23.7952 7.7267 23.1253 7.43691C22.4554 7.14712 21.733 6.9984 21.0031 7.00001C18.05 7.00001 15.675 9.39376 15.675 12.3313C15.675 12.7438 15.725 13.1563 15.8062 13.5531C11.3844 13.3219 7.44062 11.2094 4.81875 7.97501C4.34102 8.791 4.09067 9.72009 4.09375 10.6656C4.09375 12.5156 5.03437 14.1469 6.46875 15.1063C5.62345 15.073 4.79795 14.8406 4.05937 14.4281V14.4938C4.05937 17.0844 5.89062 19.2313 8.33125 19.725C7.873 19.844 7.40158 19.9049 6.92812 19.9063C6.58125 19.9063 6.25312 19.8719 5.92187 19.825C6.59687 21.9375 8.5625 23.4719 10.9031 23.5219C9.07187 24.9563 6.77812 25.8 4.2875 25.8C3.84063 25.8 3.42812 25.7844 3 25.7344C5.3625 27.25 8.16562 28.125 11.1844 28.125C20.9844 28.125 26.3469 20.0063 26.3469 12.9594C26.3469 12.7281 26.3469 12.4969 26.3312 12.2656C27.3687 11.5063 28.2781 10.5656 29.0031 9.50939Z"/></svg>