<svg xmlns="http://www.w3.org/2000/svg" width="128" height="128" fill="none" viewBox="0 0 128 128"><path fill="#7961F2" fill-rule="evenodd" d="M65.8011 13L39.7919 81.3313L96.6772 24.7386L95.2482 23.5938C87.0594 17.2652 77.3767 13.7663 67.5409 13.0923L65.8011 13ZM13 63.7679C13 63.2252 13.0088 62.6817 13.0264 62.1378L13.1052 60.513L53.0192 20.8011L24.4767 95.7888L23.4097 94.4501C16.6483 85.6207 13 74.8381 13 63.7679ZM64.0033 70.172L64.0009 70.1697H64.0056L64.0033 70.172ZM64.0033 70.172L31.334 102.671L32.4753 103.595C41.4653 110.624 52.5679 114.444 64.0018 114.443C75.4356 114.443 86.5377 110.62 95.5266 103.59L96.6679 102.667L64.0033 70.172ZM104.096 32.3412L103.168 31.2057L70.5009 63.7119L103.163 96.2088L104.091 95.0733C111.157 86.1299 114.999 75.084 115 63.7081C115.001 52.3321 111.161 41.2857 104.096 32.3412Z" clip-rule="evenodd"/></svg>