<svg xmlns="http://www.w3.org/2000/svg" xmlns:xlink="http://www.w3.org/1999/xlink" width="48" height="48" version="1.1" viewBox="0 0 48 48"><title>Group 2</title><defs><linearGradient id="linearGradient-1" x1="-120.087%" x2="97.744%" y1="-126.004%" y2="100.702%"><stop offset="0%" stop-color="#48B1FF"/><stop offset="100%" stop-color="#9500FF"/></linearGradient><linearGradient id="linearGradient-2" x1="-98.888%" x2="101.892%" y1="-103.72%" y2="104.837%"><stop offset="0%" stop-color="#48B1FF"/><stop offset="100%" stop-color="#9500FF"/></linearGradient><linearGradient id="linearGradient-3" x1="-80.742%" x2="105.406%" y1="-59.14%" y2="97.27%"><stop offset="0%" stop-color="#48B1FF"/><stop offset="100%" stop-color="#9500FF"/></linearGradient><linearGradient id="linearGradient-4" x1="-65.033%" x2="108.471%" y1="-47.876%" y2="100.741%"><stop offset="0%" stop-color="#48B1FF"/><stop offset="100%" stop-color="#9500FF"/></linearGradient><linearGradient id="linearGradient-5" x1="-137.048%" x2="25.463%" y1="-112.049%" y2="29.299%"><stop offset="0%" stop-color="#48B1FF"/><stop offset="100%" stop-color="#9500FF"/></linearGradient><linearGradient id="linearGradient-6" x1="-51.363%" x2="111.148%" y1="-37.535%" y2="103.813%"><stop offset="0%" stop-color="#48B1FF"/><stop offset="100%" stop-color="#9500FF"/></linearGradient><linearGradient id="linearGradient-7" x1="-182.891%" x2="34.941%" y1="-191.378%" y2="35.328%"><stop offset="0%" stop-color="#48B1FF"/><stop offset="100%" stop-color="#9500FF"/></linearGradient><linearGradient id="linearGradient-8" x1="-168.769%" x2="32.011%" y1="-176.312%" y2="32.245%"><stop offset="0%" stop-color="#48B1FF"/><stop offset="100%" stop-color="#9500FF"/></linearGradient><linearGradient id="linearGradient-9" x1="-156.62%" x2="29.528%" y1="-122.918%" y2="33.492%"><stop offset="0%" stop-color="#48B1FF"/><stop offset="100%" stop-color="#9500FF"/></linearGradient><linearGradient id="linearGradient-10" x1="-146.15%" x2="27.354%" y1="-117.349%" y2="31.268%"><stop offset="0%" stop-color="#48B1FF"/><stop offset="100%" stop-color="#9500FF"/></linearGradient><linearGradient id="linearGradient-11" x1="6.833%" x2="67.411%" y1="17.086%" y2="63.275%"><stop offset="0%" stop-color="#48B1FF"/><stop offset="100%" stop-color="#9500FF"/></linearGradient></defs><g id="Page-1" fill="none" fill-rule="evenodd" stroke="none" stroke-width="1"><g id="Group-2"><circle id="Oval" cx="24" cy="24" r="24" fill="#FFF"/><g id="M" fill-rule="nonzero" transform="translate(9.000000, 12.000000)"><polygon id="Path" fill="url(#linearGradient-1)" points="6 24 6.36 24 15 15.182 14.818 15"/><polygon id="Path" fill="url(#linearGradient-2)" points="13.836 15 5 24 5.329 24 14 15.168"/><polygon id="Path" fill="url(#linearGradient-3)" points="12.828 15 3 24 3.339 24 13 15.158"/><polygon id="Path" fill="url(#linearGradient-4)" points="11.826 14 1 24 1.35 24 12 14.161"/><polyline id="Path" fill="url(#linearGradient-5)" points="26.359 19.68 19.177 13 19 13.165 30.642 24 31 24 31 24 31 24 31 24 31 24"/><polyline id="Path" fill="url(#linearGradient-6)" points="0 24 0 24 0 24 0 24 0 24 .358 24 12 13.165 11.823 13 4.641 19.68"/><polygon id="Path" fill="url(#linearGradient-7)" points="16 15.182 24.64 24 25 24 16.182 15"/><polygon id="Path" fill="url(#linearGradient-8)" points="17 15.168 25.671 24 26 24 17.164 15"/><polygon id="Path" fill="url(#linearGradient-9)" points="18 15.158 27.661 24 28 24 18.172 15"/><polygon id="Path" fill="url(#linearGradient-10)" points="19 14.161 29.65 24 30 24 19.174 14"/><polygon id="Path" fill="url(#linearGradient-11)" points="31 24 31 0 24.801 0 15.5 8.945 6.199 0 0 0 0 24 4.469 19.682 4.469 4.358 15.5 14.85 26.531 4.358 26.531 19.682"/></g></g></g></svg>