<svg xmlns="http://www.w3.org/2000/svg" width="16" height="16" fill="none" viewBox="0 0 16 16"><path fill="currentColor" fill-rule="evenodd" d="M8 0C3.58172 0 0 3.58172 0 8C0 12.4183 3.58172 16 8 16C12.4183 16 16 12.4183 16 8C16 3.58172 12.4183 0 8 0ZM12.2757 7.13559C12.6828 6.7624 12.7103 6.12983 12.3372 5.72271C11.964 5.31559 11.3314 5.28809 10.9243 5.66128L6.87867 9.36975L4.75258 6.93993C4.38889 6.5243 3.75713 6.48218 3.3415 6.84586C2.92586 7.20954 2.88374 7.84131 3.24742 8.25694L6.04742 11.4569C6.22471 11.6596 6.4762 11.7821 6.74502 11.7969C7.01383 11.8117 7.27726 11.7175 7.47572 11.5356L12.2757 7.13559Z" clip-rule="evenodd"/></svg>